FILE "Thunderhawk (demo) (1993)(Core Design)(EU)(M4).img" BINARY
  TRACK 01 MODE1/2352
    INDEX 01 00:00:00
  TRACK 02 AUDIO
    PREGAP 00:02:00
    INDEX 01 01:24:29
  TRACK 03 AUDIO
    INDEX 01 05:02:62
  TRACK 04 AUDIO
    INDEX 01 08:53:49
  TRACK 05 AUDIO
    INDEX 01 09:50:66
